%TF.GenerationSoftware,KiCad,Pcbnew,7.0.5-0*%
%TF.CreationDate,2023-07-02T04:04:51-04:00*%
%TF.ProjectId,Tutorial,5475746f-7269-4616-9c2e-6b696361645f,rev?*%
%TF.SameCoordinates,Original*%
%TF.FileFunction,Soldermask,Bot*%
%TF.FilePolarity,Negative*%
%FSLAX46Y46*%
G04 Gerber Fmt 4.6, Leading zero omitted, Abs format (unit mm)*
G04 Created by KiCad (PCBNEW 7.0.5-0) date 2023-07-02 04:04:51*
%MOMM*%
%LPD*%
G01*
G04 APERTURE LIST*
G04 Aperture macros list*
%AMRoundRect*
0 Rectangle with rounded corners*
0 $1 Rounding radius*
0 $2 $3 $4 $5 $6 $7 $8 $9 X,Y pos of 4 corners*
0 Add a 4 corners polygon primitive as box body*
4,1,4,$2,$3,$4,$5,$6,$7,$8,$9,$2,$3,0*
0 Add four circle primitives for the rounded corners*
1,1,$1+$1,$2,$3*
1,1,$1+$1,$4,$5*
1,1,$1+$1,$6,$7*
1,1,$1+$1,$8,$9*
0 Add four rect primitives between the rounded corners*
20,1,$1+$1,$2,$3,$4,$5,0*
20,1,$1+$1,$4,$5,$6,$7,0*
20,1,$1+$1,$6,$7,$8,$9,0*
20,1,$1+$1,$8,$9,$2,$3,0*%
%AMHorizOval*
0 Thick line with rounded ends*
0 $1 width*
0 $2 $3 position (X,Y) of the first rounded end (center of the circle)*
0 $4 $5 position (X,Y) of the second rounded end (center of the circle)*
0 Add line between two ends*
20,1,$1,$2,$3,$4,$5,0*
0 Add two circle primitives to create the rounded ends*
1,1,$1,$2,$3*
1,1,$1,$4,$5*%
G04 Aperture macros list end*
%ADD10C,1.750000*%
%ADD11C,3.987800*%
%ADD12HorizOval,2.250000X0.655008X0.729993X-0.655008X-0.729993X0*%
%ADD13C,2.250000*%
%ADD14HorizOval,2.250000X0.020004X0.290000X-0.020004X-0.290000X0*%
%ADD15C,1.905000*%
%ADD16R,1.905000X1.905000*%
%ADD17O,1.700000X2.700000*%
%ADD18RoundRect,0.250000X0.475000X-0.250000X0.475000X0.250000X-0.475000X0.250000X-0.475000X-0.250000X0*%
%ADD19RoundRect,0.250000X0.250000X0.475000X-0.250000X0.475000X-0.250000X-0.475000X0.250000X-0.475000X0*%
%ADD20RoundRect,0.250000X-0.250000X-0.475000X0.250000X-0.475000X0.250000X0.475000X-0.250000X0.475000X0*%
G04 APERTURE END LIST*
D10*
%TO.C,MX1*%
X107632500Y-49212500D03*
D11*
X112712500Y-49212500D03*
D10*
X117792500Y-49212500D03*
D12*
X109557508Y-45942507D03*
D13*
X110212500Y-45212500D03*
D14*
X115232504Y-44422500D03*
D13*
X115252500Y-44132500D03*
D15*
X111442500Y-54292500D03*
D16*
X113982500Y-54292500D03*
%TD*%
D10*
%TO.C,MX2*%
X126682500Y-49212500D03*
D11*
X131762500Y-49212500D03*
D10*
X136842500Y-49212500D03*
D12*
X128607508Y-45942507D03*
D13*
X129262500Y-45212500D03*
D14*
X134282504Y-44422500D03*
D13*
X134302500Y-44132500D03*
D15*
X130492500Y-54292500D03*
D16*
X133032500Y-54292500D03*
%TD*%
D10*
%TO.C,MX3*%
X107632500Y-68262500D03*
D11*
X112712500Y-68262500D03*
D10*
X117792500Y-68262500D03*
D12*
X109557508Y-64992507D03*
D13*
X110212500Y-64262500D03*
D14*
X115232504Y-63472500D03*
D13*
X115252500Y-63182500D03*
D15*
X111442500Y-73342500D03*
D16*
X113982500Y-73342500D03*
%TD*%
D10*
%TO.C,MX4*%
X126682500Y-68262500D03*
D11*
X131762500Y-68262500D03*
D10*
X136842500Y-68262500D03*
D12*
X128607508Y-64992507D03*
D13*
X129262500Y-64262500D03*
D14*
X134282504Y-63472500D03*
D13*
X134302500Y-63182500D03*
D15*
X130492500Y-73342500D03*
D16*
X133032500Y-73342500D03*
%TD*%
D17*
%TO.C,USB1*%
X79056250Y-38893750D03*
X71756250Y-38893750D03*
X79056250Y-43393750D03*
X71756250Y-43393750D03*
%TD*%
D18*
%TO.C,C5*%
X81756250Y-49368750D03*
X81756250Y-47468750D03*
%TD*%
D19*
%TO.C,C1*%
X75350000Y-60600000D03*
X73450000Y-60600000D03*
%TD*%
D20*
%TO.C,C4*%
X85650000Y-59600000D03*
X87550000Y-59600000D03*
%TD*%
M02*
