M48
; DRILL file {KiCad 7.0.5-0} date 2023 July 02, Sunday 04:04:43
; FORMAT={-:-/ absolute / inch / decimal}
; #@! TF.CreationDate,2023-07-02T04:04:43-04:00
; #@! TF.GenerationSoftware,Kicad,Pcbnew,7.0.5-0
; #@! TF.FileFunction,Plated,1,2,PTH
FMAT,2
INCH
; #@! TA.AperFunction,Plated,PTH,ViaDrill
T1C0.0157
; #@! TA.AperFunction,Plated,PTH,ComponentDrill
T2C0.0276
; #@! TA.AperFunction,Plated,PTH,ComponentDrill
T3C0.0409
; #@! TA.AperFunction,Plated,PTH,ComponentDrill
T4C0.0579
%
G90
G05
T1
X2.7953Y-2.3701
X3.0082Y-2.3128
X3.2205Y-1.7323
X3.2205Y-2.0157
X3.28Y-2.3745
X3.3386Y-2.685
X3.3543Y-2.4646
X3.3701Y-1.9528
X3.4646Y-1.7638
X3.4961Y-2.6693
X3.5197Y-2.315
X3.622Y-2.6299
X3.7165Y-2.3543
X3.7165Y-2.5984
X3.937Y-2.063
X3.937Y-2.315
X4.0787Y-2.8031
X4.0866Y-1.9685
X4.7953Y-2.8031
X4.811Y-2.063
T3
X4.3875Y-2.1375
X4.3875Y-2.8875
X4.4875Y-2.1375
X4.4875Y-2.8875
X5.1375Y-2.1375
X5.1375Y-2.8875
X5.2375Y-2.1375
X5.2375Y-2.8875
T4
X4.2875Y-1.8375
X4.2875Y-2.5875
X4.3391Y-1.78
X4.3391Y-2.53
X4.5359Y-1.7603
X4.5359Y-2.5103
X4.5375Y-1.7375
X4.5375Y-2.4875
X5.0375Y-1.8375
X5.0375Y-2.5875
X5.0891Y-1.78
X5.0891Y-2.53
X5.2859Y-1.7603
X5.2859Y-2.5103
X5.2875Y-1.7375
X5.2875Y-2.4875
T2
G00X2.825Y-1.5076
M15
G01X2.825Y-1.5549
M16
G05
G00X2.825Y-1.6848
M15
G01X2.825Y-1.732
M16
G05
G00X3.1125Y-1.5076
M15
G01X3.1125Y-1.5549
M16
G05
G00X3.1125Y-1.6848
M15
G01X3.1125Y-1.732
M16
G05
T0
M30
