%TF.GenerationSoftware,KiCad,Pcbnew,7.0.5-0*%
%TF.CreationDate,2023-07-02T04:04:51-04:00*%
%TF.ProjectId,Tutorial,5475746f-7269-4616-9c2e-6b696361645f,rev?*%
%TF.SameCoordinates,Original*%
%TF.FileFunction,Legend,Bot*%
%TF.FilePolarity,Positive*%
%FSLAX46Y46*%
G04 Gerber Fmt 4.6, Leading zero omitted, Abs format (unit mm)*
G04 Created by KiCad (PCBNEW 7.0.5-0) date 2023-07-02 04:04:51*
%MOMM*%
%LPD*%
G01*
G04 APERTURE LIST*
%ADD10C,0.150000*%
%ADD11C,0.120000*%
G04 APERTURE END LIST*
D10*
%TO.C,C5*%
X83795830Y-48252083D02*
X83843450Y-48204464D01*
X83843450Y-48204464D02*
X83891069Y-48061607D01*
X83891069Y-48061607D02*
X83891069Y-47966369D01*
X83891069Y-47966369D02*
X83843450Y-47823512D01*
X83843450Y-47823512D02*
X83748211Y-47728274D01*
X83748211Y-47728274D02*
X83652973Y-47680655D01*
X83652973Y-47680655D02*
X83462497Y-47633036D01*
X83462497Y-47633036D02*
X83319640Y-47633036D01*
X83319640Y-47633036D02*
X83129164Y-47680655D01*
X83129164Y-47680655D02*
X83033926Y-47728274D01*
X83033926Y-47728274D02*
X82938688Y-47823512D01*
X82938688Y-47823512D02*
X82891069Y-47966369D01*
X82891069Y-47966369D02*
X82891069Y-48061607D01*
X82891069Y-48061607D02*
X82938688Y-48204464D01*
X82938688Y-48204464D02*
X82986307Y-48252083D01*
X82891069Y-49156845D02*
X82891069Y-48680655D01*
X82891069Y-48680655D02*
X83367259Y-48633036D01*
X83367259Y-48633036D02*
X83319640Y-48680655D01*
X83319640Y-48680655D02*
X83272021Y-48775893D01*
X83272021Y-48775893D02*
X83272021Y-49013988D01*
X83272021Y-49013988D02*
X83319640Y-49109226D01*
X83319640Y-49109226D02*
X83367259Y-49156845D01*
X83367259Y-49156845D02*
X83462497Y-49204464D01*
X83462497Y-49204464D02*
X83700592Y-49204464D01*
X83700592Y-49204464D02*
X83795830Y-49156845D01*
X83795830Y-49156845D02*
X83843450Y-49109226D01*
X83843450Y-49109226D02*
X83891069Y-49013988D01*
X83891069Y-49013988D02*
X83891069Y-48775893D01*
X83891069Y-48775893D02*
X83843450Y-48680655D01*
X83843450Y-48680655D02*
X83795830Y-48633036D01*
%TO.C,C1*%
X74566666Y-59279580D02*
X74614285Y-59327200D01*
X74614285Y-59327200D02*
X74757142Y-59374819D01*
X74757142Y-59374819D02*
X74852380Y-59374819D01*
X74852380Y-59374819D02*
X74995237Y-59327200D01*
X74995237Y-59327200D02*
X75090475Y-59231961D01*
X75090475Y-59231961D02*
X75138094Y-59136723D01*
X75138094Y-59136723D02*
X75185713Y-58946247D01*
X75185713Y-58946247D02*
X75185713Y-58803390D01*
X75185713Y-58803390D02*
X75138094Y-58612914D01*
X75138094Y-58612914D02*
X75090475Y-58517676D01*
X75090475Y-58517676D02*
X74995237Y-58422438D01*
X74995237Y-58422438D02*
X74852380Y-58374819D01*
X74852380Y-58374819D02*
X74757142Y-58374819D01*
X74757142Y-58374819D02*
X74614285Y-58422438D01*
X74614285Y-58422438D02*
X74566666Y-58470057D01*
X73614285Y-59374819D02*
X74185713Y-59374819D01*
X73899999Y-59374819D02*
X73899999Y-58374819D01*
X73899999Y-58374819D02*
X73995237Y-58517676D01*
X73995237Y-58517676D02*
X74090475Y-58612914D01*
X74090475Y-58612914D02*
X74185713Y-58660533D01*
%TO.C,C4*%
X86766666Y-58372080D02*
X86814285Y-58419700D01*
X86814285Y-58419700D02*
X86957142Y-58467319D01*
X86957142Y-58467319D02*
X87052380Y-58467319D01*
X87052380Y-58467319D02*
X87195237Y-58419700D01*
X87195237Y-58419700D02*
X87290475Y-58324461D01*
X87290475Y-58324461D02*
X87338094Y-58229223D01*
X87338094Y-58229223D02*
X87385713Y-58038747D01*
X87385713Y-58038747D02*
X87385713Y-57895890D01*
X87385713Y-57895890D02*
X87338094Y-57705414D01*
X87338094Y-57705414D02*
X87290475Y-57610176D01*
X87290475Y-57610176D02*
X87195237Y-57514938D01*
X87195237Y-57514938D02*
X87052380Y-57467319D01*
X87052380Y-57467319D02*
X86957142Y-57467319D01*
X86957142Y-57467319D02*
X86814285Y-57514938D01*
X86814285Y-57514938D02*
X86766666Y-57562557D01*
X85909523Y-57800652D02*
X85909523Y-58467319D01*
X86147618Y-57419700D02*
X86385713Y-58133985D01*
X86385713Y-58133985D02*
X85766666Y-58133985D01*
D11*
%TO.C,C5*%
X81021250Y-48680002D02*
X81021250Y-48157498D01*
X82491250Y-48680002D02*
X82491250Y-48157498D01*
%TO.C,C1*%
X74661252Y-61335000D02*
X74138748Y-61335000D01*
X74661252Y-59865000D02*
X74138748Y-59865000D01*
%TO.C,C4*%
X86338748Y-58865000D02*
X86861252Y-58865000D01*
X86338748Y-60335000D02*
X86861252Y-60335000D01*
%TD*%
M02*
